<?xml version="1.0"?>
<svg width="1024" height="1024" xmlns="http://www.w3.org/2000/svg" xmlns:svg="http://www.w3.org/2000/svg">
 <g class="layer">
  <title>Layer 1</title>
  <path d="m672.77,312.53c4.63,-0.21 7.81,1.5 11.24,4.56c3.85,3.44 16.43,20.38 16.66,24.85l-0.81,-0.04c-7.06,-3 -14.05,-7.32 -19.86,-12.34c-3.63,-3.13 -9.14,-8.24 -9.3,-13.31c-0.06,-1.88 0.88,-2.52 2.07,-3.72z" fill="#17FF60" id="svg_3"/>
  <path d="m312.65,660.81c1.52,4.54 0.81,14.87 1.11,20.33c0.47,8.95 1.21,17.96 2.8,26.79c-5.6,8.44 -15.56,26.94 -25.57,29.11c-0.6,-0.21 -1.23,-0.45 -1.75,-0.81c-1.2,-0.84 -1.79,-2.31 -2.1,-3.69c-3.79,-17.05 16.39,-56.41 25.51,-71.73z" fill="#F74217" id="svg_4"/>
  <path d="m830.19,170.32c3.26,8.72 5.15,29.38 7.06,39.75c10.66,3.46 21.23,7.22 31.38,12c-10.03,3.72 -20.49,6.51 -30.6,10.09c-0.12,4.24 0.65,8.61 1.12,12.82c0.94,8.37 2.03,16.77 2.55,25.17c-8.75,-10.03 -17.52,-20.2 -25.76,-30.66q-4.8,1.83 -9.57,3.76c-8.81,3.95 -17.69,8.34 -26.86,11.39c2.43,-4.61 5.84,-8.99 8.71,-13.35c3.98,-6.07 7.68,-12.31 11.38,-18.56c-8.38,-7.7 -18.94,-21.05 -25.05,-30.7c12.55,2.56 24.12,8.54 36.51,11.11c4.96,-8.77 13.25,-25.76 19.13,-32.82z" fill="#ffff00" id="svg_5"/>
  <path d="m403.66,469.56c3.13,-0.18 5.2,-0.05 8,1.43c6.91,3.65 10.93,11.35 13.11,18.57c6.05,20.01 0.8,39.95 -8.93,57.86c-8.63,15.88 -20.83,30.63 -38.69,35.93c-3.4,0.28 -6.31,0.3 -9.6,-0.74c-5.15,-1.64 -8.97,-5.12 -11.29,-9.98c-6.69,-14.04 -1.85,-33.25 2.92,-47.21c5.92,-17.34 27.38,-47.47 44.48,-55.86z" fill="white" id="svg_7"/>
  <path d="m386.36,502.06c0.86,0.05 1.81,0.12 2.63,0.39c1.73,0.57 3.05,2.32 3.65,3.97c2.67,7.31 -2.03,19.41 -5.37,25.93c-3.6,7.03 -8.7,15.35 -16.58,17.87c-0.99,-0.07 -1.93,-0.1 -2.84,-0.53c-2.1,-0.99 -3.49,-3.46 -3.99,-5.64c-2.17,-9.46 4.39,-23.25 9.37,-30.97c3.26,-5.07 6.97,-9.72 13.13,-11.02z" fill="#535353" id="svg_8"/>
  <path d="m436.6,377.43c7.4,1.09 14.85,1.89 22.18,3.37c72.54,14.67 147.66,49.46 205.22,96.23c11.51,9.35 25.71,21.15 33.87,33.66c2.43,3.72 4.28,7.9 3.23,12.4c-0.58,2.44 -1.75,4.72 -3.11,6.82c-3.77,5.83 -26.11,34.16 -30.74,37.03c-9.65,5.98 -24.77,-5.21 -34.57,-7.62c-0.19,-0.05 -0.37,-0.08 -0.56,-0.13c-0.85,-11.57 -2.3,-22.67 -4.43,-34.08c6.08,5.58 12.75,10.71 19.08,16.01c3.8,3.27 8.63,8.93 13.9,9.34l0.48,-0.54c-0.08,-0.65 -0.05,-0.69 -0.32,-1.41c-1.64,-4.42 -11.83,-11.7 -15.7,-14.9q-12.02,-9.92 -24.6,-19.11q-12.58,-9.19 -25.67,-17.62q-13.1,-8.44 -26.68,-16.08q-13.57,-7.65 -27.57,-14.49c-9.8,-4.87 -19.71,-9.82 -29.85,-13.94c-26.09,-10.59 -52.43,-19.45 -80.1,-24.85c-3.23,-0.63 -9.73,-2.66 -12.72,-1.4c-0.72,1.01 -0.73,1.17 -0.8,2.43c2.78,2.08 23.44,5.37 28.83,6.77c-8.74,4.29 -16.97,9.98 -24.9,15.58c-11.17,-7.44 -19.6,-15.25 -25.17,-27.62c3.82,-5.85 9.08,-11.09 13.72,-16.32q13.2,-15.03 26.98,-29.53z" fill="white" id="svg_10"/>
  <path d="m814.62,244.7c0.68,0.45 1.34,0.91 1.8,1.61c2.93,4.5 1.39,22.69 0.7,27.99c-2.85,21.63 -11.47,44.14 -29.36,57.65c-22.42,16.94 -53.83,17.24 -80.51,13.46q-0.14,-0.53 -0.31,-1.05c-3.38,-10.9 -15.89,-29.09 -26.13,-34.35c-2.74,-1.41 -6.11,-2.38 -9.14,-1.32q-0.34,0.12 -0.67,0.27q-0.33,0.16 -0.64,0.34q-0.31,0.19 -0.6,0.4q-0.29,0.22 -0.55,0.46q-0.27,0.25 -0.51,0.52q-0.24,0.27 -0.45,0.56q-0.21,0.29 -0.39,0.61q-0.18,0.31 -0.33,0.64c-1.18,2.58 -0.95,5.56 0.01,8.17c4.41,11.91 23.09,22.22 34.09,27.25c-1.18,16.41 -4.63,32.84 -8.32,48.84c-6.16,26.69 -13.37,52.83 -24.8,77.82c-27.15,-21.41 -57.08,-40.83 -88.2,-55.93q-12.8,-6.39 -25.93,-12.06q-13.13,-5.67 -26.56,-10.6q-13.43,-4.93 -27.11,-9.11q-13.69,-4.18 -27.58,-7.59c10.59,-12.39 29.27,-28.1 42.18,-38.29c45.58,-35.93 105.69,-71.87 166.29,-60.03c12.41,2.43 24.33,6.92 36.04,11.62c17.33,6.96 35.39,17.37 54.66,12.09c20.75,-5.68 31.38,-24.65 37.28,-43.95c1.51,-4.95 2.18,-11.2 4.8,-15.65c0.08,-0.12 0.16,-0.25 0.24,-0.37z" fill="#17FF60" id="svg_15" transform="matrix(1 0 0 1 0 0)"/>
  <path d="m452.03,437.46c0.18,-0.02 0.37,-0.06 0.55,-0.08c5.2,-0.41 15.41,4.17 20.79,5.95c38.19,12.66 73.92,29.97 108.37,50.66c13.96,8.38 28.07,17.32 40.73,27.56c0.48,7.78 2.8,15.64 3.87,23.4c1.97,14.25 1.97,28.67 1.16,43.01c-1.71,30.15 -9.63,59.67 -15.68,89.14c-8.16,39.74 -14.54,80.55 -15.92,121.15c-0.82,23.99 1.38,47.8 8.49,70.82c2.37,7.64 10.72,23.36 10.81,29.97c0.02,1.43 -0.27,3 -1.49,3.9c-6.17,4.55 -28.76,-13.64 -35.19,-15.34c-5.03,1.76 3.32,14.21 -0.03,18.91c-0.68,0.95 -1.69,1.47 -2.81,1.68c-11.45,2.18 -47.55,-20.87 -57.58,-27.76c-5.6,-3.84 -10.77,-8.17 -16.28,-12.11c-1.32,-0.11 -1.38,-0.24 -2.44,0.53c-1.17,3.87 3.48,12.04 4.82,15.81c1.43,4.02 3.6,10.71 1.33,14.69c-0.64,1.13 -1.58,1.83 -2.85,2.09c-5.15,1.06 -22.51,-9.93 -27.26,-12.95c-16.74,-10.86 -31.54,-23.43 -46.85,-36.14c-1.34,-1.11 -2.28,-1.75 -4.09,-1.59c-1.14,0.87 -1.43,1.22 -1.6,2.67c-0.34,2.99 0.86,6.65 1.34,9.62c1.13,6.95 3.57,22.77 0.49,28.67c-0.6,1.15 -1.54,2.04 -2.86,2.29c-1.84,0.34 -3.83,-0.63 -5.36,-1.55c-7.63,-4.59 -14.16,-12.24 -20.06,-18.85c-32.71,-36.67 -56.77,-84.32 -68.58,-131.89c-16.9,-68.03 -14.14,-140.13 22.73,-201.36c-2.1,11.57 -3.64,24.52 2.44,35.28c3.08,5.47 8.55,9.8 14.65,11.4c7.93,2.08 16.08,-0.6 22.82,-4.79c18.26,-11.35 34.05,-35.78 38.84,-56.55c3.53,-15.28 3.36,-34.16 -5.29,-47.84c-3.96,-6.25 -9.29,-9.93 -16.48,-11.58c14.27,-11.14 27.89,-21.23 44.47,-28.82z" fill="#F74217" id="svg_22"/>
  <path d="m535.98,675.23c0.55,0.09 1.51,0.15 2.04,0.39c1.02,0.43 1.44,0.87 1.41,2.02c-0.07,2.75 -1.14,6.07 -1.65,8.81q-1.11,6.12 -1.7,12.31c-2.08,20.59 -1.21,43.62 5.71,63.17c1.87,5.28 4.63,13.96 10.21,16.36c1.69,0.73 3.64,1.03 5.35,0.13c9.64,-5.08 5.84,-42.8 5.62,-52.63q-0.24,-13.2 0.2,-26.39c0.11,-3.63 -0.19,-8.72 1.16,-12.1c0.47,-1.16 0.88,-1.45 2.01,-1.91l1.06,0.48c1,1.44 0.95,1.48 0.85,3.25c-1.33,11.06 -1.56,22.76 -1.16,33.89c0.51,14.64 3.12,33.11 -0.38,47.28c-1.14,4.59 -3.38,9.2 -7.64,11.62c-2.39,1.37 -4.93,2.02 -7.61,1.16c-4.64,-1.48 -7.77,-6.04 -9.95,-10.15c-12.75,-23.94 -13.71,-71.26 -5.53,-97.69z" fill="#535353" id="svg_23"/>
  <path d="m364.33,604.81c14.75,4.33 29.43,8.55 44.36,12.24c10.89,2.7 23.26,3.71 33.37,8.55c0.97,1.21 1.28,2.49 1.22,4.04c-0.24,5.82 -4.96,11.79 -8.93,15.72c-2.81,2.17 -5.66,3.81 -9.03,4.95c-13.03,4.38 -28.04,0.94 -39.97,-5.06c-9.64,-4.84 -18.27,-12.4 -21.63,-22.95c-1.78,-5.6 -2.17,-12.18 0.61,-17.49z" fill="#535353" id="svg_24"/>
  <path d="m366.72,609.76c17.27,6.85 36.05,10.41 54.15,14.35c5.08,1.1 10.72,1.64 15.66,3.1c0.76,0.22 1.7,0.58 1.97,1.37c1.04,3.05 -2.54,8.34 -4.06,10.94l-3.49,-3.27c-7.27,-5.65 -16.54,-10 -25.64,-11.59c-12.18,-2.12 -20.32,2.23 -29.96,8.98c-6.04,-7.19 -9.09,-14.44 -8.63,-23.88z" fill="#3f3f3f" id="svg_25" transform="matrix(1 0 0 1 0 0)"/>
  <path d="m394.53,626.62c1.91,-0.19 3.87,-0.2 5.78,-0.17c10.86,0.17 25.29,6.57 32.81,14.33c-4.6,4.44 -9.79,6.23 -15.93,7.18c-14.26,0.53 -26.88,-3.42 -38.63,-11.51c4.23,-5.76 9.21,-8.22 15.97,-9.83z" fill="#7f7f7f" id="svg_26" transform="matrix(1 0 0 1 0 0)"/>
  <path d="m513.03,478.2c7.3,0.5 14.37,2.69 20.01,7.54c8.76,7.52 12.39,20.17 13.32,31.27c2.34,27.74 -10.34,58.91 -28.08,79.82c-11.72,13.81 -25.59,22.6 -43.75,24.07q-1.42,0 -2.83,-0.12q-1.42,-0.12 -2.81,-0.36q-1.4,-0.24 -2.78,-0.59q-1.37,-0.35 -2.71,-0.82q-1.34,-0.47 -2.64,-1.04q-1.29,-0.58 -2.53,-1.27q-1.25,-0.68 -2.43,-1.47q-1.18,-0.78 -2.29,-1.66c-8.19,-6.61 -11.87,-17.29 -12.85,-27.46c-2.66,-27.83 9.81,-59.6 27.51,-80.71c11.11,-13.24 27.12,-25.67 44.86,-27.2z" fill="#535353" id="svg_27"/>
  <path d="m508.92,482.62c6.91,-0.54 13.61,0.7 19.35,4.81c7.64,5.47 11.31,14.85 12.78,23.8c4.36,26.49 -6.17,55.94 -21.66,77.18c-9.76,13.4 -23.48,25.51 -40.33,28.1c-7.41,0.28 -13.98,-0.39 -20.38,-4.62c-7.02,-4.63 -11.16,-11.99 -12.89,-20.09c-5.08,-23.81 4.35,-53.4 17.4,-73.28c10.04,-15.31 27.18,-32.09 45.73,-35.9z" fill="white" id="svg_28"/>
  <path d="m478.14,522.57c1.28,-0.07 2.72,-0.23 3.98,0.02c1.65,0.32 3.36,1.72 4.14,3.19c2.08,3.9 0.51,9.85 -0.58,13.91c-3.08,11.39 -10.1,26.44 -20.68,32.54c-1.33,0.25 -2.63,0.4 -3.96,0.11c-1.65,-0.38 -3.05,-1.34 -3.88,-2.82c-2.51,-4.45 -0.35,-13.45 1.18,-18.06c3.42,-10.34 9.6,-23.77 19.8,-28.89z" fill="#535353" id="svg_29" transform="matrix(1 0 0 1 0 0)"/>
 </g>
</svg>